<?xml version="1.0" encoding="utf-8"?>
<!-- Generator: Adobe Illustrator 23.0.3, SVG Export Plug-In . SVG Version: 6.00 Build 0)  -->
<svg version="1.1" id="Layer_1" xmlns="http://www.w3.org/2000/svg" xmlns:xlink="http://www.w3.org/1999/xlink" x="0px" y="0px"
	 viewBox="0 0 392.06 62.5" style="enable-background:new 0 0 392.06 62.5;" xml:space="preserve">
<style type="text/css">
	.st0{fill:none;}
	.st1{fill:#FFFFFF;}
	.st2{fill:#EE3A25;}
</style>
<g>
	<path class="st0" d="M20.77,21.31c-3.93,0-7.19,1.35-9.96,4.13c-2.78,2.78-4.13,6.04-4.13,9.96c0,3.93,1.35,7.19,4.13,9.96
		c2.78,2.78,6.04,4.13,9.96,4.13c3.93,0,7.19-1.35,9.96-4.13c2.78-2.78,4.13-6.04,4.13-9.96c0-3.93-1.35-7.19-4.13-9.96
		C27.96,22.66,24.7,21.31,20.77,21.31z"/>
	<path class="st1" d="M34.86,20.17c-1.12-1.04-2.36-1.95-3.7-2.73c-3.19-1.87-6.69-2.81-10.38-2.81c-5.7,0-10.65,2.05-14.7,6.1
		C2.05,24.76,0,29.7,0,35.4c0,5.7,2.04,10.64,6.08,14.7c4.05,4.03,8.99,6.08,14.69,6.08c5.7,0,10.64-2.04,14.67-6.08
		c4.05-4.05,6.1-8.99,6.1-14.7V6.2h-6.69V20.17z M30.74,45.36c-2.78,2.78-6.04,4.13-9.96,4.13c-3.93,0-7.19-1.35-9.96-4.13
		c-2.78-2.78-4.13-6.03-4.13-9.96c0-3.93,1.35-7.19,4.13-9.96c2.78-2.78,6.04-4.13,9.96-4.13c3.93,0,7.19,1.35,9.96,4.13
		c2.78,2.78,4.13,6.04,4.13,9.96C34.86,39.33,33.51,42.59,30.74,45.36z"/>
	<path class="st1" d="M74.44,38.21c0,3.19-1.1,5.83-3.37,8.08c-2.25,2.25-4.89,3.34-8.06,3.34c-3.19,0-5.83-1.09-8.08-3.34
		c-2.25-2.25-3.34-4.89-3.34-8.08V15.94H44.9v22.26c0,4.97,1.78,9.28,5.3,12.82c3.53,3.51,7.84,5.29,12.81,5.29
		c4.95,0,9.26-1.78,12.79-5.3c3.51-3.53,5.29-7.84,5.29-12.81V15.94h-6.66V38.21z"/>
	<polygon class="st1" points="119.67,15.99 110.2,15.99 91.14,34.86 91.14,6.18 84.46,6.18 84.46,54.76 91.14,54.76 91.14,44.24 
		95.43,39.99 109.65,54.81 119.02,54.81 100.18,35.29 	"/>
	<path class="st1" d="M136.78,14.63c-5.7,0-10.65,2.05-14.7,6.1c-4.03,4.03-6.08,8.97-6.08,14.67c0,5.7,2.04,10.64,6.08,14.7
		c4.05,4.03,8.99,6.08,14.69,6.08c3.69,0,7.18-0.94,10.39-2.79c1.35-0.79,2.58-1.71,3.7-2.75v4.19h6.69V35.4
		c0-5.7-2.05-10.64-6.1-14.67C147.42,16.68,142.48,14.63,136.78,14.63z M146.74,45.36c-2.78,2.78-6.04,4.13-9.96,4.13
		c-3.93,0-7.19-1.35-9.96-4.13c-2.78-2.78-4.13-6.03-4.13-9.96c0-3.93,1.35-7.19,4.13-9.96c2.78-2.78,6.04-4.13,9.96-4.13
		c3.93,0,7.19,1.35,9.96,4.13c2.78,2.78,4.13,6.04,4.13,9.96C150.87,39.33,149.52,42.59,146.74,45.36z"/>
	<path class="st2" d="M202.07,14.6c-3.12,0-6.02,0.87-8.63,2.57c-1.55,1-2.87,2.22-3.96,3.64c-1.09-1.42-2.42-2.64-3.96-3.64
		c-2.62-1.71-5.53-2.57-8.66-2.57c-4.38,0-8.16,1.58-11.25,4.68c-3.11,3.09-4.69,6.89-4.69,11.28v24.22h6.69V30.57
		c0-2.58,0.89-4.73,2.71-6.57c1.82-1.82,3.96-2.71,6.54-2.71c2.58,0,4.73,0.89,6.56,2.71c1.83,1.84,2.72,3.99,2.72,6.57v24.22h6.69
		V30.57c0-2.58,0.89-4.73,2.71-6.57c1.82-1.82,3.96-2.71,6.54-2.71c2.58,0,4.73,0.89,6.56,2.71c1.83,1.84,2.72,3.99,2.72,6.57v24.22
		h6.69V30.57c0-4.39-1.58-8.19-4.68-11.27C210.25,16.18,206.46,14.6,202.07,14.6z"/>
	<path class="st2" d="M241.06,14.63c-5.7,0-10.65,2.05-14.7,6.1c-4.03,4.03-6.08,8.97-6.08,14.67c0,5.7,2.04,10.64,6.08,14.7
		c4.05,4.03,8.99,6.08,14.69,6.08c3.69,0,7.18-0.94,10.39-2.79c1.35-0.79,2.58-1.71,3.7-2.75v4.2h6.69V35.4
		c0-5.7-2.05-10.64-6.1-14.67C251.7,16.68,246.76,14.63,241.06,14.63z M251.03,45.36c-2.78,2.78-6.04,4.13-9.96,4.13
		c-3.93,0-7.19-1.35-9.96-4.13c-2.78-2.78-4.13-6.03-4.13-9.96c0-3.93,1.35-7.19,4.13-9.96s6.04-4.13,9.96-4.13
		c3.93,0,7.19,1.35,9.96,4.13c2.78,2.78,4.13,6.04,4.13,9.96C255.15,39.33,253.8,42.59,251.03,45.36z"/>
	<path class="st2" d="M283.25,14.6c-4.96,0-9.25,1.78-12.77,5.3c-3.52,3.52-5.3,7.81-5.3,12.77v22.14h6.69V32.67
		c0-3.17,1.09-5.81,3.35-8.06c2.23-2.25,4.86-3.34,8.03-3.34c1.18,0,2.36,0.19,3.51,0.56l2.62,0.85V15.6l-1.49-0.39
		C286.38,14.8,284.82,14.6,283.25,14.6z"/>
	<polygon class="st2" points="326.72,15.99 317.25,15.99 298.2,34.86 298.2,6.18 291.51,6.18 291.51,54.76 298.2,54.76 298.2,44.24 
		302.49,39.99 316.71,54.81 326.08,54.81 307.24,35.29 	"/>
	<path class="st2" d="M357.86,20.11c-3.95-3.64-8.67-5.49-14.03-5.49c-5.7,0-10.65,2.05-14.7,6.1c-4.03,4.03-6.08,8.97-6.08,14.67
		s2.04,10.64,6.08,14.67c4.05,4.05,8.99,6.1,14.7,6.1c4.4,0,8.44-1.3,12-3.87c3.47-2.49,5.98-5.79,7.45-9.8l0.68-1.87h-7.08
		l-0.17,0.38c-1.11,2.55-2.77,4.54-5.09,6.09c-2.39,1.6-4.94,2.37-7.8,2.37c-3.77,0-6.94-1.26-9.68-3.84
		c-2.19-2.08-3.54-4.49-4.1-7.29h34.4l0.15-2.95c0-0.55-0.04-1.18-0.11-1.92C364.02,28.21,361.78,23.71,357.86,20.11z M330.23,31.67
		c0.67-2.6,2.04-4.81,4.16-6.72c2.7-2.45,5.79-3.63,9.45-3.63c3.64,0,6.73,1.19,9.45,3.63c2.1,1.91,3.47,4.13,4.15,6.72H330.23z"/>
	<path class="st2" d="M392.06,22.63v-6.69h-18.48V9.67h-6.71v30.66c0,4.33,1.57,8.08,4.66,11.16c3.06,3.06,6.81,4.61,11.13,4.61
		c3.13,0,5.99-0.82,8.49-2.45l0.91-0.59v-8.99l-3.34,3.03c-1.72,1.56-3.7,2.31-6.05,2.31c-2.53,0-4.63-0.87-6.42-2.66
		c-1.79-1.79-2.66-3.89-2.66-6.42v-17.7H392.06z"/>
</g>
</svg>
